<?xml version="1.0" standalone="no"?>
<!DOCTYPE svg PUBLIC "-//W3C//DTD SVG 1.1//EN" "http://www.w3.org/Graphics/SVG/1.1/DTD/svg11.dtd" >
<svg xmlns="http://www.w3.org/2000/svg" xmlns:xlink="http://www.w3.org/1999/xlink" version="1.1">
<metadata></metadata>
<defs>
<font id="simplo_caps_demoregular" horiz-adv-x="1406" >
<font-face units-per-em="2048" ascent="1571" descent="-477" />
<missing-glyph horiz-adv-x="583" />
<glyph horiz-adv-x="0" />
<glyph horiz-adv-x="682" />
<glyph unicode=" "  horiz-adv-x="583" />
<glyph unicode="&#x09;" horiz-adv-x="583" />
<glyph unicode="&#xa0;" horiz-adv-x="583" />
<glyph unicode="0" horiz-adv-x="1247" d="M125 708q0 132 33.5 254.5t95 219.5t158 155.5t212.5 58.5t212.5 -58.5t158 -155.5t95 -219.5t33.5 -254.5q0 -107 -19 -210.5t-59.5 -197.5t-98 -165t-140.5 -113t-182 -42t-182 42t-140.5 113t-98 165t-59.5 197.5t-19 210.5zM281 708q0 -100 18.5 -197.5t56.5 -188 t107.5 -146.5t160.5 -56q74 0 134 37.5t98 97.5t64 139t37 157.5t11 156.5q0 73 -12 147t-39 147t-65.5 129t-97.5 90.5t-130 34.5q-88 0 -156.5 -52t-108 -135.5t-59 -176t-19.5 -184.5z" />
<glyph unicode="1" horiz-adv-x="643" d="M61 1237l78 139h291v-1376h-154v1237h-215z" />
<glyph unicode="2" horiz-adv-x="1006" d="M61 0l575 707q117 145 117 279q0 111 -79.5 190.5t-189.5 79.5q-109 0 -180.5 -66.5t-98.5 -176.5h-140q15 156 135.5 269.5t286.5 113.5q125 0 222.5 -57t148.5 -149.5t51 -201.5q0 -79 -23 -149.5t-48.5 -110t-70.5 -96.5l-393 -493h535v-139h-848z" />
<glyph unicode="3" horiz-adv-x="1072" d="M84 343h141q17 -98 102 -160.5t187 -62.5q122 0 203 75t81 190q0 112 -75.5 187.5t-186.5 83.5v125q98 7 161 70.5t63 161.5q0 100 -73 172t-173 72q-93 0 -158.5 -57t-88.5 -146h-141q15 141 129 241.5t259 100.5q175 0 286 -111.5t111 -262.5q0 -193 -166 -295 q108 -55 158.5 -144.5t50.5 -197.5q0 -79 -30.5 -151.5t-86 -129t-139.5 -90.5t-184 -34q-162 0 -288.5 104t-141.5 259z" />
<glyph unicode="4" horiz-adv-x="1064" d="M18 263l810 1153v-1013h161v-140h-161v-263h-155v263h-655zM292 403h381v551z" />
<glyph unicode="5" horiz-adv-x="1045" d="M30 219l116 81q46 -85 127 -132.5t172 -47.5q144 0 244.5 100.5t100.5 244.5t-100.5 244.5t-244.5 100.5q-162 0 -272 -93l190 659h562v-139h-441l-83 -291q27 5 44 5q214 0 356.5 -137.5t142.5 -348.5q0 -210 -141.5 -347.5t-357.5 -137.5q-129 0 -238.5 63t-176.5 176z " />
<glyph unicode="6" horiz-adv-x="1138" d="M93 465q0 167 116 317l460 594h180l-336 -432q24 6 59 6q97 0 186 -38.5t153 -103.5t102 -155t38 -188t-38 -188t-102 -155t-153 -103.5t-186 -38.5q-197 0 -338 142.5t-141 342.5zM248 465q0 -138 94 -241.5t230 -103.5t230 102.5t94 242.5q0 138 -93.5 241.5 t-230.5 103.5q-136 0 -230 -102.5t-94 -242.5z" />
<glyph unicode="7" horiz-adv-x="1111" d="M62 1237v139h1042l-838 -1376h-179l749 1237h-774z" />
<glyph unicode="8" horiz-adv-x="1089" d="M112 385q0 102 53.5 191.5t159.5 149.5q-88 55 -130.5 132.5t-42.5 163.5q0 162 110.5 268t279.5 106q170 0 280 -106.5t110 -267.5q0 -85 -43 -163t-130 -133q104 -55 158.5 -147.5t54.5 -193.5q0 -169 -122.5 -287t-307.5 -118q-186 0 -308 117.5t-122 287.5zM267 385 q0 -110 80 -187.5t195 -77.5q116 0 195.5 77.5t79.5 187.5t-79.5 186.5t-195.5 76.5t-195.5 -76.5t-79.5 -186.5zM302 1026q0 -99 70.5 -168.5t169.5 -69.5q100 0 170 69.5t70 168.5q0 98 -70.5 167.5t-169.5 69.5t-169.5 -69.5t-70.5 -167.5z" />
<glyph unicode="9" horiz-adv-x="1136" d="M89 911q0 98 38 188t102 155t153 103.5t186 38.5q197 0 338.5 -142.5t141.5 -342.5q0 -167 -116 -317l-460 -594h-181l336 433q-28 -7 -59 -7q-97 0 -186 38.5t-153 103.5t-102 155t-38 188zM244 911q0 -138 93.5 -241t230.5 -103q136 0 230 102t94 242q0 138 -94 241.5 t-230 103.5t-230 -102.5t-94 -242.5z" />
<glyph unicode="A" horiz-adv-x="1212" d="M-5 0l639 1416l582 -1416h-166l-99 240h-678l-108 -240h-170zM337 380h556l-266 651z" />
<glyph unicode="B" horiz-adv-x="1135" d="M192 0v1376h339q119 0 215 -40.5t153.5 -121t57.5 -186.5q0 -83 -39 -160t-124 -131q120 -55 180.5 -150.5t60.5 -207.5q0 -172 -133.5 -275.5t-331.5 -103.5h-378zM347 140h223q131 0 221 65t90 189q0 82 -44 141t-111.5 86.5t-150.5 27.5h-228v-509zM347 788h189 q112 0 189 58t77 167q0 111 -78 167t-193 56h-184v-448z" />
<glyph unicode="C" d="M105 688q0 144 56 275t151.5 226t227 151t275.5 56q152 0 289.5 -61t236.5 -169l-110 -94q-79 83 -187.5 130.5t-228.5 47.5q-151 0 -279 -75.5t-202 -205t-74 -281.5t74 -281t202 -204.5t279 -75.5q123 0 234.5 49.5t189.5 136.5l102 -102q-99 -109 -235.5 -170 t-290.5 -61q-144 0 -275.5 56t-227 151t-151.5 226t-56 275z" />
<glyph unicode="D" horiz-adv-x="1397" d="M192 0v1376h294q226 0 407 -81.5t289 -239.5t108 -367q0 -141 -53 -267.5t-146.5 -219.5t-230 -147t-295.5 -54h-373zM347 140h221q161 0 291 73t202.5 198.5t72.5 276.5q0 127 -50 231.5t-137 173t-204 106t-253 37.5h-143v-1096z" />
<glyph unicode="E" horiz-adv-x="959" d="M192 0v1376h662v-140h-507v-426h428v-140h-428v-530h541v-140h-696z" />
<glyph unicode="F" horiz-adv-x="892" d="M192 0v1376h662v-140h-507v-426h428v-140h-428v-670h-155z" />
<glyph unicode="G" horiz-adv-x="1544" d="M98 688q0 144 56 275t151 226t226 151t275 56q175 0 327 -79.5t250 -216.5l-112 -93q-77 111 -200.5 177t-264.5 66q-150 0 -277.5 -75.5t-201 -204.5t-73.5 -282t73.5 -282t201 -204t277.5 -75q180 0 310.5 90.5t161.5 250.5h-449v140h641q-6 -176 -91 -319t-235.5 -226 t-337.5 -83q-144 0 -275 56t-226 151t-151 226t-56 275z" />
<glyph unicode="H" horiz-adv-x="1405" d="M192 0v1376h155v-566h710v566h155v-1376h-155v670h-710v-670h-155z" />
<glyph unicode="I" horiz-adv-x="534" d="M192 0v1376h155v-1376h-155z" />
<glyph unicode="J" horiz-adv-x="801" d="M8 37l63 126q75 -43 145 -43q250 0 250 341v915h155v-951q0 -95 -23 -172t-61.5 -127t-91 -83.5t-109.5 -48t-120 -14.5q-107 0 -208 57z" />
<glyph unicode="K" horiz-adv-x="1203" d="M192 0v1376h155v-586l591 586h214l-649 -646l702 -730h-216l-642 667v-667h-155z" />
<glyph unicode="L" horiz-adv-x="798" d="M192 0v1376h155v-1236h440v-140h-595z" />
<glyph unicode="M" horiz-adv-x="1600" d="M38 0l333 1416l427 -1079l427 1079l334 -1416h-160l-217 936l-384 -975l-384 975l-217 -936h-159z" />
<glyph unicode="N" horiz-adv-x="1604" d="M192 0v1416l1062 -1085v1045h154v-1415l-1061 1085v-1046h-155z" />
<glyph unicode="O" horiz-adv-x="1628" d="M105 688q0 144 56 275t151 226t225.5 151t274.5 56q192 0 355 -95t257.5 -258t94.5 -355t-94.5 -355t-257.5 -258t-355 -95q-144 0 -274.5 56t-225.5 151t-151 226t-56 275zM260 688q0 -152 74 -281t201 -204.5t277 -75.5t277 75.5t201 204.5t74 281t-73.5 281.5 t-201 205t-277.5 75.5t-277 -75.5t-201 -205t-74 -281.5z" />
<glyph unicode="P" horiz-adv-x="1004" d="M192 0v1376h353q180 0 301 -107.5t121 -287.5q0 -179 -120.5 -286.5t-300.5 -107.5h-199v-587h-155zM347 727h180q122 0 203.5 64.5t81.5 189.5q0 126 -82 190.5t-205 64.5h-178v-509z" />
<glyph unicode="Q" horiz-adv-x="1657" d="M107 688q0 144 56 275t151 226t225.5 151t274.5 56q192 0 355 -95t257.5 -258t94.5 -355q0 -150 -59.5 -283.5t-165.5 -231.5q111 -53 225 -53v-140q-184 0 -351 96q-164 -96 -356 -96q-144 0 -274.5 56t-225.5 151t-151 226t-56 275zM262 688q0 -152 74 -281t201 -204.5 t277 -75.5q113 0 212 44q-80 51 -145 77.5t-144 26.5v140q54 0 105.5 -9.5t86 -20.5t81.5 -36t67 -38t67 -45l18 -12q95 79 149.5 192t54.5 242q0 152 -73.5 281.5t-201 205t-277.5 75.5t-277 -75.5t-201 -205t-74 -281.5z" />
<glyph unicode="R" horiz-adv-x="1061" d="M192 0v1376h352q118 0 213.5 -44t152.5 -130t57 -200q0 -121 -65 -214.5t-180 -136.5l255 -651h-171l-243 627h-216v-627h-155zM347 767h197q114 0 191 59t77 176t-77 175.5t-191 58.5h-197v-469z" />
<glyph unicode="S" horiz-adv-x="945" d="M73 231l122 71q51 -90 121.5 -135t173.5 -45q89 0 155.5 56.5t66.5 142.5q0 68 -32 127t-83 103t-112.5 86.5t-123.5 88t-113 96t-83 121t-32 153.5q0 127 94 213.5t228 86.5q191 0 339 -178l-106 -84q-117 126 -221 126q-77 0 -130 -43.5t-53 -128.5q0 -57 32 -109 t83.5 -94t113.5 -84.5t124.5 -89t114 -98t83.5 -121t32 -149.5q0 -161 -103 -262t-277 -101q-284 0 -414 251z" />
<glyph unicode="T" horiz-adv-x="865" d="M14 1236v140h842v-140h-344v-1236h-154v1236h-344z" />
<glyph unicode="U" d="M182 512v864h155v-814q0 -82 12.5 -148t33.5 -111.5t53.5 -79.5t66 -53.5t78 -31t83.5 -15.5t87 -4q165 0 315 95v1162h155v-1248q-100 -69 -223.5 -108.5t-246.5 -39.5q-102 0 -181.5 13t-154.5 48t-124.5 93.5t-79 154t-29.5 223.5z" />
<glyph unicode="V" horiz-adv-x="1174" d="M-4 1376h167l437 -1022l416 1022h167l-583 -1415z" />
<glyph unicode="W" horiz-adv-x="2055" d="M15 1376h167l432 -1019l416 1059l430 -1057l411 1017h167l-579 -1415l-429 1055l-414 -1055z" />
<glyph unicode="X" horiz-adv-x="1061" d="M-5 0l446 725l-400 651h181l310 -503l309 503h183l-402 -651l447 -725h-182l-355 579l-356 -579h-181z" />
<glyph unicode="Y" horiz-adv-x="1035" d="M-7 1376h181l346 -561l344 561h181l-448 -730v-646h-155v646z" />
<glyph unicode="Z" horiz-adv-x="965" d="M29 0l648 1236h-590v140h838l-647 -1236h648v-140h-897z" />
<glyph unicode="a" horiz-adv-x="1212" d="M-5 0l639 1416l582 -1416h-166l-99 240h-678l-108 -240h-170zM337 380h556l-266 651z" />
<glyph unicode="b" horiz-adv-x="1135" d="M192 0v1376h339q119 0 215 -40.5t153.5 -121t57.5 -186.5q0 -83 -39 -160t-124 -131q120 -55 180.5 -150.5t60.5 -207.5q0 -172 -133.5 -275.5t-331.5 -103.5h-378zM347 140h223q131 0 221 65t90 189q0 82 -44 141t-111.5 86.5t-150.5 27.5h-228v-509zM347 788h189 q112 0 189 58t77 167q0 111 -78 167t-193 56h-184v-448z" />
<glyph unicode="c" d="M105 688q0 144 56 275t151.5 226t227 151t275.5 56q152 0 289.5 -61t236.5 -169l-110 -94q-79 83 -187.5 130.5t-228.5 47.5q-151 0 -279 -75.5t-202 -205t-74 -281.5t74 -281t202 -204.5t279 -75.5q123 0 234.5 49.5t189.5 136.5l102 -102q-99 -109 -235.5 -170 t-290.5 -61q-144 0 -275.5 56t-227 151t-151.5 226t-56 275z" />
<glyph unicode="d" horiz-adv-x="1397" d="M192 0v1376h294q226 0 407 -81.5t289 -239.5t108 -367q0 -141 -53 -267.5t-146.5 -219.5t-230 -147t-295.5 -54h-373zM347 140h221q161 0 291 73t202.5 198.5t72.5 276.5q0 127 -50 231.5t-137 173t-204 106t-253 37.5h-143v-1096z" />
<glyph unicode="e" horiz-adv-x="959" d="M192 0v1376h662v-140h-507v-426h428v-140h-428v-530h541v-140h-696z" />
<glyph unicode="f" horiz-adv-x="892" d="M192 0v1376h662v-140h-507v-426h428v-140h-428v-670h-155z" />
<glyph unicode="g" horiz-adv-x="1544" d="M98 688q0 144 56 275t151 226t226 151t275 56q175 0 327 -79.5t250 -216.5l-112 -93q-77 111 -200.5 177t-264.5 66q-150 0 -277.5 -75.5t-201 -204.5t-73.5 -282t73.5 -282t201 -204t277.5 -75q180 0 310.5 90.5t161.5 250.5h-449v140h641q-6 -176 -91 -319t-235.5 -226 t-337.5 -83q-144 0 -275 56t-226 151t-151 226t-56 275z" />
<glyph unicode="h" horiz-adv-x="1405" d="M192 0v1376h155v-566h710v566h155v-1376h-155v670h-710v-670h-155z" />
<glyph unicode="i" horiz-adv-x="534" d="M192 0v1376h155v-1376h-155z" />
<glyph unicode="j" horiz-adv-x="801" d="M8 37l63 126q75 -43 145 -43q250 0 250 341v915h155v-951q0 -95 -23 -172t-61.5 -127t-91 -83.5t-109.5 -48t-120 -14.5q-107 0 -208 57z" />
<glyph unicode="k" horiz-adv-x="1203" d="M192 0v1376h155v-586l591 586h214l-649 -646l702 -730h-216l-642 667v-667h-155z" />
<glyph unicode="l" horiz-adv-x="798" d="M192 0v1376h155v-1236h440v-140h-595z" />
<glyph unicode="m" horiz-adv-x="1600" d="M38 0l333 1416l427 -1079l427 1079l334 -1416h-160l-217 936l-384 -975l-384 975l-217 -936h-159z" />
<glyph unicode="n" horiz-adv-x="1604" d="M192 0v1416l1062 -1085v1045h154v-1415l-1061 1085v-1046h-155z" />
<glyph unicode="o" horiz-adv-x="1628" d="M105 688q0 144 56 275t151 226t225.5 151t274.5 56q192 0 355 -95t257.5 -258t94.5 -355t-94.5 -355t-257.5 -258t-355 -95q-144 0 -274.5 56t-225.5 151t-151 226t-56 275zM260 688q0 -152 74 -281t201 -204.5t277 -75.5t277 75.5t201 204.5t74 281t-73.5 281.5 t-201 205t-277.5 75.5t-277 -75.5t-201 -205t-74 -281.5z" />
<glyph unicode="p" horiz-adv-x="1004" d="M192 0v1376h353q180 0 301 -107.5t121 -287.5q0 -179 -120.5 -286.5t-300.5 -107.5h-199v-587h-155zM347 727h180q122 0 203.5 64.5t81.5 189.5q0 126 -82 190.5t-205 64.5h-178v-509z" />
<glyph unicode="q" horiz-adv-x="1657" d="M107 688q0 144 56 275t151 226t225.5 151t274.5 56q192 0 355 -95t257.5 -258t94.5 -355q0 -150 -59.5 -283.5t-165.5 -231.5q111 -53 225 -53v-140q-184 0 -351 96q-164 -96 -356 -96q-144 0 -274.5 56t-225.5 151t-151 226t-56 275zM262 688q0 -152 74 -281t201 -204.5 t277 -75.5q113 0 212 44q-80 51 -145 77.5t-144 26.5v140q54 0 105.5 -9.5t86 -20.5t81.5 -36t67 -38t67 -45l18 -12q95 79 149.5 192t54.5 242q0 152 -73.5 281.5t-201 205t-277.5 75.5t-277 -75.5t-201 -205t-74 -281.5z" />
<glyph unicode="r" horiz-adv-x="1061" d="M192 0v1376h352q118 0 213.5 -44t152.5 -130t57 -200q0 -121 -65 -214.5t-180 -136.5l255 -651h-171l-243 627h-216v-627h-155zM347 767h197q114 0 191 59t77 176t-77 175.5t-191 58.5h-197v-469z" />
<glyph unicode="s" horiz-adv-x="945" d="M73 231l122 71q51 -90 121.5 -135t173.5 -45q89 0 155.5 56.5t66.5 142.5q0 68 -32 127t-83 103t-112.5 86.5t-123.5 88t-113 96t-83 121t-32 153.5q0 127 94 213.5t228 86.5q191 0 339 -178l-106 -84q-117 126 -221 126q-77 0 -130 -43.5t-53 -128.5q0 -57 32 -109 t83.5 -94t113.5 -84.5t124.5 -89t114 -98t83.5 -121t32 -149.5q0 -161 -103 -262t-277 -101q-284 0 -414 251z" />
<glyph unicode="t" horiz-adv-x="865" d="M14 1236v140h842v-140h-344v-1236h-154v1236h-344z" />
<glyph unicode="u" d="M182 512v864h155v-814q0 -82 12.5 -148t33.5 -111.5t53.5 -79.5t66 -53.5t78 -31t83.5 -15.5t87 -4q165 0 315 95v1162h155v-1248q-100 -69 -223.5 -108.5t-246.5 -39.5q-102 0 -181.5 13t-154.5 48t-124.5 93.5t-79 154t-29.5 223.5z" />
<glyph unicode="v" horiz-adv-x="1174" d="M-4 1376h167l437 -1022l416 1022h167l-583 -1415z" />
<glyph unicode="w" horiz-adv-x="2055" d="M15 1376h167l432 -1019l416 1059l430 -1057l411 1017h167l-579 -1415l-429 1055l-414 -1055z" />
<glyph unicode="x" horiz-adv-x="1061" d="M-5 0l446 725l-400 651h181l310 -503l309 503h183l-402 -651l447 -725h-182l-355 579l-356 -579h-181z" />
<glyph unicode="y" horiz-adv-x="1035" d="M-7 1376h181l346 -561l344 561h181l-448 -730v-646h-155v646z" />
<glyph unicode="z" horiz-adv-x="965" d="M29 0l648 1236h-590v140h838l-647 -1236h648v-140h-897z" />
<glyph unicode="&#x2000;" horiz-adv-x="708" />
<glyph unicode="&#x2001;" horiz-adv-x="1416" />
<glyph unicode="&#x2002;" horiz-adv-x="708" />
<glyph unicode="&#x2003;" horiz-adv-x="1416" />
<glyph unicode="&#x2004;" horiz-adv-x="472" />
<glyph unicode="&#x2005;" horiz-adv-x="354" />
<glyph unicode="&#x2006;" horiz-adv-x="236" />
<glyph unicode="&#x2007;" horiz-adv-x="236" />
<glyph unicode="&#x2008;" horiz-adv-x="177" />
<glyph unicode="&#x2009;" horiz-adv-x="283" />
<glyph unicode="&#x200a;" horiz-adv-x="78" />
<glyph unicode="&#x202f;" horiz-adv-x="283" />
<glyph unicode="&#x205f;" horiz-adv-x="354" />
<glyph unicode="&#x25fc;" horiz-adv-x="1376" d="M0 0v1376h1376v-1376h-1376z" />
</font>
</defs>
</svg>
